<svg xmlns="http://www.w3.org/2000/svg" xmlns:svg="http://www.w3.org/2000/svg" id="Calque_1" width="32.1" height="32" x="0" y="0" enable-background="new 0 0 32 32" version="1.1" viewBox="0 0 32.1 32" xml:space="preserve"><rect id="rect1776" width="32" height="32" x=".1" y="0" fill="none" fill-rule="evenodd" clip-rule="evenodd"/><path id="path1778" fill="#b6b5b6" d="M 30,28.4 H 2 c -1.1,0 -2,-0.9 -2,-2 v -18 c 0,-1.1 0.9,-2 2,-2 h 28 c 1.1,0 2,0.9 2,2 v 18 c 0,1.1 -0.9,2 -2,2 z"/><path id="path1780" fill="#fbfbfb" d="M 30,27.4 H 2 c -1.1,0 -2,-0.9 -2,-2 v -17 c 0,-1.1 0.9,-2 2,-2 h 28 c 1.1,0 2,0.9 2,2 v 17 c 0,1.1 -0.9,2 -2,2 z"/><path id="path11889" d="m 11.520289,8.4637512 c -0.06474,-0.00183 -0.129661,-0.00125 -0.194234,0.00117 C 9.7763279,8.5230552 8.3049,9.7900155 8.3049,11.461507 v 10.877094 c -6e-7,2.228655 2.616628,3.738089 4.545774,2.622156 l 9.398109,-5.436205 c 1.928423,-1.115516 1.928423,-4.133479 0,-5.248993 L 12.850674,8.839348 C 12.428673,8.595238 11.973493,8.4765655 11.520289,8.4637512 Z m -0.184873,1.2309276 c 0.307885,1.456e-4 0.612521,0.080796 0.882242,0.2363567 a 0.89871379,0.89871379 0 0 0 0.0012,0 l 9.398109,5.4362075 c 1.143234,0.659415 1.143234,2.406201 0,3.065618 l -9.398109,5.436206 a 0.89871379,0.89871379 0 0 0 -0.0012,0 C 11.076744,24.528497 9.5659235,23.656375 9.56625,22.338599 V 11.461504 c 3.043e-4,-0.851902 0.622381,-1.5925143 1.461434,-1.7399133 0.102209,-0.018038 0.205103,-0.026958 0.307732,-0.026912 z" style="color:#000;fill:#585858;fill-opacity:1;stroke-width:.999994;stroke-linecap:round;stroke-linejoin:round;paint-order:markers stroke fill"/></svg>